<svg width="72" height="20" viewBox="0 0 72 20" fill="none" xmlns="http://www.w3.org/2000/svg">
<path d="M22.627 11.1172C22.1113 11.1172 21.6504 11.0371 21.2441 10.877C20.8379 10.7129 20.4941 10.4883 20.2129 10.2031C19.9355 9.91797 19.7227 9.58984 19.5742 9.21875C19.4297 8.84766 19.3574 8.45508 19.3574 8.04102V7.81836C19.3574 7.35352 19.4219 6.92383 19.5508 6.5293C19.6797 6.13086 19.8711 5.7832 20.125 5.48633C20.3789 5.18945 20.6973 4.95898 21.0801 4.79492C21.4629 4.62695 21.9082 4.54297 22.416 4.54297C22.8652 4.54297 23.2676 4.61523 23.623 4.75977C23.9785 4.9043 24.2793 5.11133 24.5254 5.38086C24.7754 5.65039 24.9648 5.97656 25.0938 6.35938C25.2266 6.74219 25.293 7.17188 25.293 7.64844V8.45117H20.1133V7.21484H23.3652V7.0625C23.3691 6.85156 23.332 6.67188 23.2539 6.52344C23.1797 6.375 23.0703 6.26172 22.9258 6.18359C22.7812 6.10547 22.6055 6.06641 22.3984 6.06641C22.1836 6.06641 22.0059 6.11328 21.8652 6.20703C21.7285 6.30078 21.6211 6.42969 21.543 6.59375C21.4688 6.75391 21.416 6.93945 21.3848 7.15039C21.3535 7.36133 21.3379 7.58398 21.3379 7.81836V8.04102C21.3379 8.27539 21.3691 8.48828 21.4316 8.67969C21.498 8.87109 21.5918 9.03516 21.7129 9.17188C21.8379 9.30469 21.9863 9.4082 22.1582 9.48242C22.334 9.55664 22.5332 9.59375 22.7559 9.59375C23.0254 9.59375 23.291 9.54297 23.5527 9.44141C23.8145 9.33984 24.0391 9.17188 24.2266 8.9375L25.123 10.0039C24.9941 10.1875 24.8105 10.3652 24.5723 10.5371C24.3379 10.709 24.0566 10.8496 23.7285 10.959C23.4004 11.0645 23.0332 11.1172 22.627 11.1172ZM28.2988 9.64648L29.5469 4.66016H31.627L29.5527 11H28.3223L28.2988 9.64648ZM27.5605 4.66016L28.791 9.64648L28.7793 11H27.543L25.4746 4.66016H27.5605ZM35.2012 11.1172C34.6855 11.1172 34.2246 11.0371 33.8184 10.877C33.4121 10.7129 33.0684 10.4883 32.7871 10.2031C32.5098 9.91797 32.2969 9.58984 32.1484 9.21875C32.0039 8.84766 31.9316 8.45508 31.9316 8.04102V7.81836C31.9316 7.35352 31.9961 6.92383 32.125 6.5293C32.2539 6.13086 32.4453 5.7832 32.6992 5.48633C32.9531 5.18945 33.2715 4.95898 33.6543 4.79492C34.0371 4.62695 34.4824 4.54297 34.9902 4.54297C35.4395 4.54297 35.8418 4.61523 36.1973 4.75977C36.5527 4.9043 36.8535 5.11133 37.0996 5.38086C37.3496 5.65039 37.5391 5.97656 37.668 6.35938C37.8008 6.74219 37.8672 7.17188 37.8672 7.64844V8.45117H32.6875V7.21484H35.9395V7.0625C35.9434 6.85156 35.9062 6.67188 35.8281 6.52344C35.7539 6.375 35.6445 6.26172 35.5 6.18359C35.3555 6.10547 35.1797 6.06641 34.9727 6.06641C34.7578 6.06641 34.5801 6.11328 34.4395 6.20703C34.3027 6.30078 34.1953 6.42969 34.1172 6.59375C34.043 6.75391 33.9902 6.93945 33.959 7.15039C33.9277 7.36133 33.9121 7.58398 33.9121 7.81836V8.04102C33.9121 8.27539 33.9434 8.48828 34.0059 8.67969C34.0723 8.87109 34.166 9.03516 34.2871 9.17188C34.4121 9.30469 34.5605 9.4082 34.7324 9.48242C34.9082 9.55664 35.1074 9.59375 35.3301 9.59375C35.5996 9.59375 35.8652 9.54297 36.127 9.44141C36.3887 9.33984 36.6133 9.17188 36.8008 8.9375L37.6973 10.0039C37.5684 10.1875 37.3848 10.3652 37.1465 10.5371C36.9121 10.709 36.6309 10.8496 36.3027 10.959C35.9746 11.0645 35.6074 11.1172 35.2012 11.1172ZM40.6094 6.01367V11H38.6348V4.66016H40.4863L40.6094 6.01367ZM40.375 7.61328L39.9121 7.625C39.9121 7.14062 39.9707 6.70898 40.0879 6.33008C40.2051 5.94727 40.3711 5.62305 40.5859 5.35742C40.8008 5.0918 41.0566 4.89062 41.3535 4.75391C41.6543 4.61328 41.9883 4.54297 42.3555 4.54297C42.6484 4.54297 42.916 4.58594 43.1582 4.67188C43.4043 4.75781 43.6152 4.89648 43.791 5.08789C43.9707 5.2793 44.1074 5.5332 44.2012 5.84961C44.2988 6.16211 44.3477 6.54883 44.3477 7.00977V11H42.3613V7.00391C42.3613 6.75 42.3262 6.55664 42.2559 6.42383C42.1855 6.28711 42.084 6.19336 41.9512 6.14258C41.8184 6.0918 41.6562 6.06641 41.4648 6.06641C41.2617 6.06641 41.0898 6.10547 40.9492 6.18359C40.8086 6.26172 40.6953 6.37109 40.6094 6.51172C40.5273 6.64844 40.4668 6.81055 40.4277 6.99805C40.3926 7.18555 40.375 7.39062 40.375 7.61328ZM48.7832 4.66016V6.03125H44.9629V4.66016H48.7832ZM45.7656 3.08398H47.7402V8.93164C47.7402 9.09961 47.7598 9.23047 47.7988 9.32422C47.8379 9.41406 47.9043 9.47852 47.998 9.51758C48.0957 9.55273 48.2246 9.57031 48.3848 9.57031C48.498 9.57031 48.5918 9.56836 48.666 9.56445C48.7402 9.55664 48.8105 9.54688 48.877 9.53516V10.9473C48.709 11.002 48.5332 11.043 48.3496 11.0703C48.166 11.1016 47.9707 11.1172 47.7637 11.1172C47.3418 11.1172 46.9805 11.0508 46.6797 10.918C46.3828 10.7852 46.1562 10.5762 46 10.291C45.8438 10.0059 45.7656 9.63477 45.7656 9.17773V3.08398Z" fill="white"/>
<path d="M51.502 2V11H49.5273V2H51.502ZM51.2676 7.61328L50.8047 7.625C50.8047 7.17969 50.8594 6.76953 50.9688 6.39453C51.0781 6.01953 51.2344 5.69336 51.4375 5.41602C51.6406 5.13867 51.8848 4.92383 52.1699 4.77148C52.4551 4.61914 52.7715 4.54297 53.1191 4.54297C53.4316 4.54297 53.7168 4.58789 53.9746 4.67773C54.2363 4.76758 54.4609 4.91211 54.6484 5.11133C54.8398 5.31055 54.9863 5.57031 55.0879 5.89062C55.1934 6.21094 55.2461 6.60156 55.2461 7.0625V11H53.2598V7.05078C53.2598 6.79297 53.2227 6.59375 53.1484 6.45312C53.0781 6.30859 52.9766 6.20898 52.8438 6.1543C52.7109 6.0957 52.5488 6.06641 52.3574 6.06641C52.127 6.06641 51.9395 6.10547 51.7949 6.18359C51.6504 6.26172 51.5391 6.37109 51.4609 6.51172C51.3867 6.64844 51.3359 6.81055 51.3086 6.99805C51.2812 7.18555 51.2676 7.39062 51.2676 7.61328ZM58.4277 4.66016V11H56.4473V4.66016H58.4277ZM56.3301 3.02539C56.3301 2.74414 56.4316 2.51367 56.6348 2.33398C56.8379 2.1543 57.1016 2.06445 57.4258 2.06445C57.75 2.06445 58.0137 2.1543 58.2168 2.33398C58.4199 2.51367 58.5215 2.74414 58.5215 3.02539C58.5215 3.30664 58.4199 3.53711 58.2168 3.7168C58.0137 3.89648 57.75 3.98633 57.4258 3.98633C57.1016 3.98633 56.8379 3.89648 56.6348 3.7168C56.4316 3.53711 56.3301 3.30664 56.3301 3.02539ZM61.9316 9.64648L63.1797 4.66016H65.2598L63.1855 11H61.9551L61.9316 9.64648ZM61.1934 4.66016L62.4238 9.64648L62.4121 11H61.1758L59.1074 4.66016H61.1934ZM68.834 11.1172C68.3184 11.1172 67.8574 11.0371 67.4512 10.877C67.0449 10.7129 66.7012 10.4883 66.4199 10.2031C66.1426 9.91797 65.9297 9.58984 65.7812 9.21875C65.6367 8.84766 65.5645 8.45508 65.5645 8.04102V7.81836C65.5645 7.35352 65.6289 6.92383 65.7578 6.5293C65.8867 6.13086 66.0781 5.7832 66.332 5.48633C66.5859 5.18945 66.9043 4.95898 67.2871 4.79492C67.6699 4.62695 68.1152 4.54297 68.623 4.54297C69.0723 4.54297 69.4746 4.61523 69.8301 4.75977C70.1855 4.9043 70.4863 5.11133 70.7324 5.38086C70.9824 5.65039 71.1719 5.97656 71.3008 6.35938C71.4336 6.74219 71.5 7.17188 71.5 7.64844V8.45117H66.3203V7.21484H69.5723V7.0625C69.5762 6.85156 69.5391 6.67188 69.4609 6.52344C69.3867 6.375 69.2773 6.26172 69.1328 6.18359C68.9883 6.10547 68.8125 6.06641 68.6055 6.06641C68.3906 6.06641 68.2129 6.11328 68.0723 6.20703C67.9355 6.30078 67.8281 6.42969 67.75 6.59375C67.6758 6.75391 67.623 6.93945 67.5918 7.15039C67.5605 7.36133 67.5449 7.58398 67.5449 7.81836V8.04102C67.5449 8.27539 67.5762 8.48828 67.6387 8.67969C67.7051 8.87109 67.7988 9.03516 67.9199 9.17188C68.0449 9.30469 68.1934 9.4082 68.3652 9.48242C68.541 9.55664 68.7402 9.59375 68.9629 9.59375C69.2324 9.59375 69.498 9.54297 69.7598 9.44141C70.0215 9.33984 70.2461 9.17188 70.4336 8.9375L71.3301 10.0039C71.2012 10.1875 71.0176 10.3652 70.7793 10.5371C70.5449 10.709 70.2637 10.8496 69.9355 10.959C69.6074 11.0645 69.2402 11.1172 68.834 11.1172Z" fill="#875BCD"/>
<path d="M20.8789 15.9102L20.5176 18H20.0732L20.5322 15.3584H20.9521L20.8789 15.9102ZM20.6812 16.5791L20.481 16.5742C20.5037 16.4098 20.5444 16.2511 20.603 16.0981C20.6616 15.9451 20.7397 15.8084 20.8374 15.688C20.9367 15.5675 21.0563 15.4731 21.1963 15.4048C21.3363 15.3364 21.4982 15.3047 21.6821 15.3096C21.8188 15.3128 21.9344 15.3397 22.0288 15.3901C22.1232 15.439 22.1989 15.5065 22.2559 15.5928C22.3145 15.6774 22.3535 15.7751 22.373 15.8857C22.3942 15.9964 22.3991 16.1144 22.3877 16.2397L22.0923 18H21.6504L21.9434 16.2593C21.9564 16.1486 21.9499 16.0509 21.9238 15.9663C21.8994 15.8817 21.853 15.8149 21.7847 15.7661C21.7163 15.7157 21.6235 15.6888 21.5063 15.6855C21.3745 15.6823 21.2598 15.7051 21.1621 15.7539C21.0661 15.8027 20.9855 15.8703 20.9204 15.9565C20.8569 16.0412 20.8057 16.138 20.7666 16.2471C20.7275 16.3545 20.6991 16.4652 20.6812 16.5791ZM22.3877 16.3301L22.0703 16.4229C22.0898 16.2715 22.1305 16.1283 22.1924 15.9932C22.2559 15.8581 22.3381 15.7384 22.439 15.6343C22.5399 15.5301 22.6571 15.4487 22.7905 15.3901C22.924 15.3315 23.0713 15.3039 23.2324 15.3071C23.3757 15.3104 23.4969 15.3372 23.5962 15.3877C23.6955 15.4365 23.7744 15.5041 23.833 15.5903C23.8932 15.6766 23.9331 15.7775 23.9526 15.8931C23.9738 16.007 23.9771 16.1307 23.9624 16.2642L23.6719 18H23.2275L23.5205 16.2568C23.5335 16.1445 23.5278 16.0461 23.5034 15.9614C23.4806 15.8768 23.4351 15.8109 23.3667 15.7637C23.2983 15.7148 23.2039 15.6896 23.0835 15.688C22.9875 15.6847 22.8996 15.6994 22.8198 15.7319C22.7401 15.7645 22.6709 15.8109 22.6123 15.8711C22.5537 15.9297 22.5049 15.998 22.4658 16.0762C22.4284 16.1543 22.4023 16.2389 22.3877 16.3301ZM26.0107 17.3652L26.3574 15.3584H26.8018L26.3428 18H25.9204L26.0107 17.3652ZM26.1768 16.833L26.3574 16.8257C26.3363 16.9917 26.2988 17.1496 26.2451 17.2993C26.1914 17.4474 26.1182 17.5793 26.0254 17.6948C25.9342 17.8088 25.8203 17.8983 25.6836 17.9634C25.5485 18.0269 25.3882 18.0562 25.2026 18.0513C25.0578 18.0464 24.9365 18.0171 24.8389 17.9634C24.7428 17.9097 24.6672 17.8372 24.6118 17.7461C24.5565 17.6549 24.5199 17.5508 24.502 17.4336C24.484 17.3164 24.4816 17.1927 24.4946 17.0625L24.7803 15.3584H25.2222L24.9365 17.0698C24.93 17.1414 24.9292 17.2122 24.9341 17.2822C24.939 17.3506 24.9536 17.4132 24.978 17.4702C25.0024 17.5272 25.0399 17.5736 25.0903 17.6094C25.1424 17.6436 25.2108 17.6623 25.2954 17.6655C25.4712 17.672 25.6201 17.6395 25.7422 17.5679C25.8643 17.4946 25.9611 17.3937 26.0327 17.2651C26.1043 17.1366 26.1523 16.9925 26.1768 16.833ZM28.6377 17.2847C28.6523 17.1838 28.6336 17.1048 28.5815 17.0479C28.5311 16.9909 28.4644 16.9478 28.3813 16.9185C28.3 16.8875 28.2202 16.8623 28.1421 16.8428C28.0444 16.8184 27.946 16.7882 27.8467 16.7524C27.7474 16.7166 27.6562 16.6711 27.5732 16.6157C27.4919 16.5588 27.4268 16.4888 27.3779 16.4058C27.3307 16.3211 27.3096 16.2186 27.3145 16.0981C27.321 15.9679 27.3551 15.8532 27.417 15.7539C27.4805 15.6546 27.5618 15.5716 27.6611 15.5049C27.762 15.4382 27.8719 15.3885 27.9907 15.356C28.1095 15.3234 28.2275 15.3079 28.3447 15.3096C28.5107 15.3128 28.6613 15.347 28.7964 15.4121C28.9331 15.4772 29.0413 15.5708 29.1211 15.6929C29.2008 15.8149 29.2383 15.9631 29.2334 16.1372L28.7964 16.1348C28.7996 16.042 28.7809 15.9622 28.7402 15.8955C28.6995 15.8288 28.6434 15.7775 28.5718 15.7417C28.5002 15.7043 28.4188 15.6847 28.3276 15.6831C28.2414 15.6815 28.1567 15.6953 28.0737 15.7246C27.9907 15.7523 27.9199 15.7962 27.8613 15.8564C27.8027 15.915 27.7669 15.9915 27.7539 16.0859C27.7441 16.1559 27.7547 16.2137 27.7856 16.2593C27.8166 16.3032 27.8589 16.339 27.9126 16.3667C27.9679 16.3927 28.0257 16.4147 28.0859 16.4326C28.1478 16.4489 28.2039 16.4635 28.2544 16.4766C28.3879 16.514 28.5197 16.5612 28.6499 16.6182C28.7801 16.6751 28.8859 16.7541 28.9673 16.855C29.0487 16.9543 29.0853 17.0853 29.0771 17.248C29.0706 17.3864 29.034 17.5068 28.9673 17.6094C28.9022 17.7103 28.8175 17.7941 28.7134 17.8608C28.6108 17.9259 28.4977 17.974 28.374 18.0049C28.2503 18.0358 28.1266 18.0505 28.0029 18.0488C27.832 18.0456 27.6725 18.0106 27.5244 17.9438C27.3779 17.8755 27.2607 17.7778 27.1729 17.6509C27.085 17.5223 27.0435 17.366 27.0483 17.1821L27.4902 17.1846C27.4902 17.2904 27.5122 17.3799 27.5562 17.4531C27.6017 17.5247 27.6644 17.5793 27.7441 17.6167C27.8239 17.6541 27.915 17.6737 28.0176 17.6753C28.1038 17.6769 28.1917 17.6655 28.2812 17.6411C28.3724 17.6167 28.4505 17.576 28.5156 17.519C28.5824 17.4604 28.623 17.3823 28.6377 17.2847ZM30.4492 15.3584L29.9902 18H29.5483L30.0073 15.3584H30.4492ZM30.0952 14.665C30.0952 14.5885 30.1188 14.5251 30.166 14.4746C30.2148 14.4225 30.2775 14.3957 30.354 14.394C30.4305 14.3924 30.4932 14.416 30.542 14.4648C30.5924 14.5137 30.6169 14.5755 30.6152 14.6504C30.6152 14.7253 30.59 14.7879 30.5396 14.8384C30.4907 14.8872 30.4289 14.9124 30.354 14.9141C30.2791 14.9157 30.2173 14.8937 30.1685 14.8481C30.1196 14.8009 30.0952 14.7399 30.0952 14.665ZM31.7944 17.6802C31.9019 17.6818 32.002 17.6615 32.0947 17.6191C32.1875 17.5768 32.2664 17.5166 32.3315 17.4385C32.3966 17.3604 32.443 17.27 32.4707 17.1675L32.8906 17.165C32.8646 17.3424 32.7954 17.4979 32.6831 17.6313C32.5724 17.7648 32.4365 17.869 32.2754 17.9438C32.1159 18.0171 31.9491 18.0521 31.7749 18.0488C31.5894 18.0456 31.4315 18.0073 31.3013 17.9341C31.1727 17.8592 31.0693 17.7599 30.9912 17.6362C30.9131 17.5125 30.8594 17.3734 30.8301 17.2188C30.8008 17.0625 30.7943 16.9022 30.8105 16.7378L30.8203 16.6328C30.8398 16.4554 30.883 16.2869 30.9497 16.1274C31.0164 15.9663 31.1051 15.8239 31.2158 15.7002C31.3281 15.5749 31.4608 15.4772 31.6138 15.4072C31.7668 15.3372 31.9385 15.3047 32.1289 15.3096C32.3145 15.3128 32.4756 15.3568 32.6123 15.4414C32.749 15.5244 32.8548 15.6375 32.9297 15.7808C33.0046 15.924 33.042 16.0868 33.042 16.269L32.627 16.2666C32.6253 16.1624 32.605 16.0664 32.5659 15.9785C32.5269 15.8906 32.4691 15.8198 32.3926 15.7661C32.3161 15.7124 32.2217 15.6831 32.1094 15.6782C31.9743 15.675 31.8563 15.7002 31.7554 15.7539C31.6561 15.8076 31.5715 15.8817 31.5015 15.9761C31.4331 16.0688 31.3786 16.1722 31.3379 16.2861C31.2988 16.4001 31.272 16.5156 31.2573 16.6328L31.2451 16.7354C31.2354 16.8395 31.2337 16.9461 31.2402 17.0552C31.2484 17.1642 31.2712 17.266 31.3086 17.3604C31.346 17.4531 31.4038 17.5288 31.4819 17.5874C31.5601 17.646 31.6642 17.6769 31.7944 17.6802ZM33.728 17.4629L33.6694 17.8242C33.6418 18.0016 33.5791 18.1668 33.4814 18.3198C33.3838 18.4728 33.2642 18.603 33.1226 18.7104L32.8784 18.5273C32.9354 18.4574 32.9875 18.3857 33.0347 18.3125C33.0819 18.2409 33.1217 18.1652 33.1543 18.0854C33.1885 18.0057 33.2145 17.9219 33.2324 17.834L33.2959 17.4629H33.728ZM36.9556 15.3584L36.8945 15.7051H35.5054L35.5664 15.3584H36.9556ZM36.1475 14.7163H36.5869L36.1401 17.3506C36.1353 17.4076 36.1369 17.4588 36.145 17.5044C36.1532 17.55 36.1727 17.5866 36.2036 17.6143C36.2345 17.6403 36.2817 17.6541 36.3452 17.6558C36.381 17.6558 36.416 17.6533 36.4502 17.6484C36.486 17.6419 36.5218 17.6362 36.5576 17.6313L36.5259 18.0024C36.4738 18.0171 36.4201 18.0277 36.3647 18.0342C36.311 18.0423 36.2573 18.0456 36.2036 18.0439C36.0685 18.0423 35.9627 18.0081 35.8862 17.9414C35.8097 17.8747 35.7576 17.7884 35.73 17.6826C35.7023 17.5768 35.6942 17.4637 35.7056 17.3433L36.1475 14.7163ZM37.9443 15.3584L37.4854 18H37.0435L37.5024 15.3584H37.9443ZM37.5903 14.665C37.5903 14.5885 37.6139 14.5251 37.6611 14.4746C37.71 14.4225 37.7726 14.3957 37.8491 14.394C37.9256 14.3924 37.9883 14.416 38.0371 14.4648C38.0876 14.5137 38.112 14.5755 38.1104 14.6504C38.1104 14.7253 38.0851 14.7879 38.0347 14.8384C37.9858 14.8872 37.924 14.9124 37.8491 14.9141C37.7743 14.9157 37.7124 14.8937 37.6636 14.8481C37.6147 14.8009 37.5903 14.7399 37.5903 14.665ZM39.2896 17.6802C39.397 17.6818 39.4971 17.6615 39.5898 17.6191C39.6826 17.5768 39.7616 17.5166 39.8267 17.4385C39.8918 17.3604 39.9382 17.27 39.9658 17.1675L40.3857 17.165C40.3597 17.3424 40.2905 17.4979 40.1782 17.6313C40.0675 17.7648 39.9316 17.869 39.7705 17.9438C39.611 18.0171 39.4442 18.0521 39.27 18.0488C39.0845 18.0456 38.9266 18.0073 38.7964 17.9341C38.6678 17.8592 38.5645 17.7599 38.4863 17.6362C38.4082 17.5125 38.3545 17.3734 38.3252 17.2188C38.2959 17.0625 38.2894 16.9022 38.3057 16.7378L38.3154 16.6328C38.335 16.4554 38.3781 16.2869 38.4448 16.1274C38.5116 15.9663 38.6003 15.8239 38.7109 15.7002C38.8232 15.5749 38.9559 15.4772 39.1089 15.4072C39.2619 15.3372 39.4336 15.3047 39.624 15.3096C39.8096 15.3128 39.9707 15.3568 40.1074 15.4414C40.2441 15.5244 40.3499 15.6375 40.4248 15.7808C40.4997 15.924 40.5371 16.0868 40.5371 16.269L40.1221 16.2666C40.1204 16.1624 40.1001 16.0664 40.061 15.9785C40.022 15.8906 39.9642 15.8198 39.8877 15.7661C39.8112 15.7124 39.7168 15.6831 39.6045 15.6782C39.4694 15.675 39.3514 15.7002 39.2505 15.7539C39.1512 15.8076 39.0666 15.8817 38.9966 15.9761C38.9282 16.0688 38.8737 16.1722 38.833 16.2861C38.7939 16.4001 38.7671 16.5156 38.7524 16.6328L38.7402 16.7354C38.7305 16.8395 38.7288 16.9461 38.7354 17.0552C38.7435 17.1642 38.7663 17.266 38.8037 17.3604C38.8411 17.4531 38.8989 17.5288 38.9771 17.5874C39.0552 17.646 39.1593 17.6769 39.2896 17.6802ZM41.8237 14.25L41.1719 18H40.7275L41.3794 14.25H41.8237ZM43.2153 15.3584L41.9067 16.5693L41.1182 17.2798L41.1719 16.7573L41.6992 16.2202L42.6392 15.3584H43.2153ZM42.3535 18L41.6406 16.7158L41.9214 16.3374L42.8369 18H42.3535ZM44.2578 18.0488C44.0771 18.0456 43.9201 18.0098 43.7866 17.9414C43.6548 17.8714 43.5465 17.7778 43.4619 17.6606C43.3789 17.5418 43.3195 17.4067 43.2837 17.2554C43.2479 17.104 43.2373 16.9453 43.252 16.7793L43.2617 16.6743C43.278 16.505 43.3195 16.339 43.3862 16.1763C43.453 16.0119 43.5417 15.8638 43.6523 15.7319C43.7646 15.6001 43.8965 15.4959 44.0479 15.4194C44.2008 15.3413 44.3701 15.3047 44.5557 15.3096C44.7396 15.3128 44.8926 15.3519 45.0146 15.4268C45.1367 15.5016 45.2319 15.6009 45.3003 15.7246C45.3703 15.8467 45.4159 15.9842 45.437 16.1372C45.4582 16.2886 45.4598 16.444 45.4419 16.6035L45.415 16.8062H43.4985L43.5571 16.4375L45.0195 16.4399L45.0269 16.4009C45.0431 16.2837 45.0366 16.1706 45.0073 16.0615C44.978 15.9525 44.9243 15.863 44.8462 15.793C44.7697 15.7214 44.6663 15.6839 44.5361 15.6807C44.401 15.6758 44.2839 15.7035 44.1846 15.7637C44.0853 15.8223 44.0023 15.902 43.9355 16.0029C43.8688 16.1022 43.8159 16.2113 43.7769 16.3301C43.7394 16.4473 43.7134 16.562 43.6987 16.6743L43.689 16.7769C43.6792 16.881 43.6825 16.986 43.6987 17.0918C43.715 17.1976 43.7459 17.2944 43.7915 17.3823C43.8387 17.4686 43.9038 17.5394 43.9868 17.5947C44.0698 17.6484 44.1724 17.6769 44.2944 17.6802C44.4425 17.6834 44.5752 17.6517 44.6924 17.585C44.8112 17.5166 44.9194 17.4303 45.0171 17.3262L45.2686 17.541C45.1921 17.6533 45.1009 17.7477 44.9951 17.8242C44.8893 17.9007 44.7738 17.9577 44.6484 17.9951C44.5231 18.0326 44.3929 18.0505 44.2578 18.0488ZM47.2485 15.3584L47.1875 15.7051H45.7983L45.8594 15.3584H47.2485ZM46.4404 14.7163H46.8799L46.4331 17.3506C46.4282 17.4076 46.4299 17.4588 46.438 17.5044C46.4461 17.55 46.4657 17.5866 46.4966 17.6143C46.5275 17.6403 46.5747 17.6541 46.6382 17.6558C46.674 17.6558 46.709 17.6533 46.7432 17.6484C46.779 17.6419 46.8148 17.6362 46.8506 17.6313L46.8188 18.0024C46.7668 18.0171 46.7131 18.0277 46.6577 18.0342C46.604 18.0423 46.5503 18.0456 46.4966 18.0439C46.3615 18.0423 46.2557 18.0081 46.1792 17.9414C46.1027 17.8747 46.0506 17.7884 46.0229 17.6826C45.9953 17.5768 45.9871 17.4637 45.9985 17.3433L46.4404 14.7163ZM48.9307 17.2847C48.9453 17.1838 48.9266 17.1048 48.8745 17.0479C48.8241 16.9909 48.7573 16.9478 48.6743 16.9185C48.5929 16.8875 48.5132 16.8623 48.4351 16.8428C48.3374 16.8184 48.2389 16.7882 48.1396 16.7524C48.0404 16.7166 47.9492 16.6711 47.8662 16.6157C47.7848 16.5588 47.7197 16.4888 47.6709 16.4058C47.6237 16.3211 47.6025 16.2186 47.6074 16.0981C47.6139 15.9679 47.6481 15.8532 47.71 15.7539C47.7734 15.6546 47.8548 15.5716 47.9541 15.5049C48.055 15.4382 48.1649 15.3885 48.2837 15.356C48.4025 15.3234 48.5205 15.3079 48.6377 15.3096C48.8037 15.3128 48.9543 15.347 49.0894 15.4121C49.2261 15.4772 49.3343 15.5708 49.4141 15.6929C49.4938 15.8149 49.5312 15.9631 49.5264 16.1372L49.0894 16.1348C49.0926 16.042 49.0739 15.9622 49.0332 15.8955C48.9925 15.8288 48.9364 15.7775 48.8647 15.7417C48.7931 15.7043 48.7118 15.6847 48.6206 15.6831C48.5343 15.6815 48.4497 15.6953 48.3667 15.7246C48.2837 15.7523 48.2129 15.7962 48.1543 15.8564C48.0957 15.915 48.0599 15.9915 48.0469 16.0859C48.0371 16.1559 48.0477 16.2137 48.0786 16.2593C48.1095 16.3032 48.1519 16.339 48.2056 16.3667C48.2609 16.3927 48.3187 16.4147 48.3789 16.4326C48.4408 16.4489 48.4969 16.4635 48.5474 16.4766C48.6808 16.514 48.8127 16.5612 48.9429 16.6182C49.0731 16.6751 49.1789 16.7541 49.2603 16.855C49.3416 16.9543 49.3783 17.0853 49.3701 17.248C49.3636 17.3864 49.327 17.5068 49.2603 17.6094C49.1951 17.7103 49.1105 17.7941 49.0063 17.8608C48.9038 17.9259 48.7907 17.974 48.667 18.0049C48.5433 18.0358 48.4196 18.0505 48.2959 18.0488C48.125 18.0456 47.9655 18.0106 47.8174 17.9438C47.6709 17.8755 47.5537 17.7778 47.4658 17.6509C47.3779 17.5223 47.3364 17.366 47.3413 17.1821L47.7832 17.1846C47.7832 17.2904 47.8052 17.3799 47.8491 17.4531C47.8947 17.5247 47.9574 17.5793 48.0371 17.6167C48.1169 17.6541 48.208 17.6737 48.3105 17.6753C48.3968 17.6769 48.4847 17.6655 48.5742 17.6411C48.6654 17.6167 48.7435 17.576 48.8086 17.519C48.8753 17.4604 48.916 17.3823 48.9307 17.2847ZM51.9849 16.0273L52.561 15.6489C52.6603 15.5838 52.7482 15.5114 52.8247 15.4316C52.9012 15.3519 52.946 15.2493 52.959 15.124C52.9704 15.0166 52.9411 14.9295 52.8711 14.8628C52.8011 14.7961 52.7132 14.7619 52.6074 14.7603C52.5146 14.7603 52.4325 14.7839 52.3608 14.8311C52.2909 14.8783 52.2339 14.9401 52.1899 15.0166C52.1476 15.0931 52.1216 15.1753 52.1118 15.2632C52.1004 15.3511 52.1094 15.4373 52.1387 15.522C52.168 15.605 52.207 15.6855 52.2559 15.7637C52.3047 15.8402 52.3519 15.9134 52.3975 15.9834L53.7134 18H53.2178L52.1387 16.3496C52.0671 16.2438 51.9938 16.1348 51.9189 16.0225C51.8441 15.9085 51.7822 15.7897 51.7334 15.666C51.6862 15.5423 51.6667 15.4129 51.6748 15.2778C51.6878 15.1004 51.7358 14.945 51.8188 14.8115C51.9035 14.6764 52.0158 14.5723 52.1558 14.499C52.2957 14.4258 52.4552 14.3916 52.6343 14.3965C52.7726 14.3997 52.8996 14.4315 53.0151 14.4917C53.1307 14.5519 53.221 14.6366 53.2861 14.7456C53.3529 14.853 53.3822 14.98 53.374 15.1265C53.3675 15.2469 53.3366 15.3551 53.2812 15.4512C53.2275 15.5472 53.1592 15.6335 53.0762 15.71C52.9932 15.7865 52.9053 15.8573 52.8125 15.9224L52.0435 16.4473C51.9735 16.4961 51.9043 16.5514 51.8359 16.6133C51.7676 16.6735 51.7082 16.741 51.6577 16.8159C51.6089 16.8908 51.5788 16.973 51.5674 17.0625C51.5511 17.1862 51.5649 17.2936 51.6089 17.3848C51.6528 17.4759 51.7196 17.5475 51.8091 17.5996C51.8986 17.6501 52.0044 17.6769 52.1265 17.6802C52.3022 17.6851 52.4618 17.6493 52.605 17.5728C52.7498 17.4946 52.876 17.3905 52.9834 17.2603C53.0924 17.1284 53.1803 16.9844 53.2471 16.8281C53.3138 16.6702 53.3586 16.514 53.3813 16.3594H53.772C53.7541 16.5221 53.7207 16.6719 53.6719 16.8086C53.623 16.9437 53.5588 17.0723 53.479 17.1943C53.3993 17.3148 53.3057 17.4344 53.1982 17.5532C53.1836 17.5695 53.1698 17.5874 53.1567 17.6069C53.1453 17.6248 53.1323 17.6419 53.1177 17.6582C52.9972 17.7933 52.8426 17.8934 52.6538 17.9585C52.4666 18.022 52.2843 18.0521 52.1069 18.0488C51.9149 18.0439 51.7415 18.0016 51.5869 17.9219C51.4323 17.8421 51.3118 17.7298 51.2256 17.585C51.1393 17.4385 51.1035 17.2643 51.1182 17.0625C51.1312 16.8949 51.1825 16.7492 51.272 16.6255C51.3631 16.5002 51.473 16.3895 51.6016 16.2935C51.7301 16.1974 51.8579 16.1087 51.9849 16.0273ZM56.084 15.9102L55.7227 18H55.2783L55.7373 15.3584H56.1572L56.084 15.9102ZM55.8862 16.5791L55.686 16.5742C55.7088 16.4098 55.7495 16.2511 55.8081 16.0981C55.8667 15.9451 55.9448 15.8084 56.0425 15.688C56.1418 15.5675 56.2614 15.4731 56.4014 15.4048C56.5413 15.3364 56.7033 15.3047 56.8872 15.3096C57.0239 15.3128 57.1395 15.3397 57.2339 15.3901C57.3283 15.439 57.404 15.5065 57.4609 15.5928C57.5195 15.6774 57.5586 15.7751 57.5781 15.8857C57.5993 15.9964 57.6042 16.1144 57.5928 16.2397L57.2974 18H56.8555L57.1484 16.2593C57.1615 16.1486 57.1549 16.0509 57.1289 15.9663C57.1045 15.8817 57.0581 15.8149 56.9897 15.7661C56.9214 15.7157 56.8286 15.6888 56.7114 15.6855C56.5796 15.6823 56.4648 15.7051 56.3672 15.7539C56.2712 15.8027 56.1906 15.8703 56.1255 15.9565C56.062 16.0412 56.0107 16.138 55.9717 16.2471C55.9326 16.3545 55.9041 16.4652 55.8862 16.5791ZM57.5928 16.3301L57.2754 16.4229C57.2949 16.2715 57.3356 16.1283 57.3975 15.9932C57.4609 15.8581 57.5431 15.7384 57.644 15.6343C57.745 15.5301 57.8621 15.4487 57.9956 15.3901C58.1291 15.3315 58.2764 15.3039 58.4375 15.3071C58.5807 15.3104 58.702 15.3372 58.8013 15.3877C58.9006 15.4365 58.9795 15.5041 59.0381 15.5903C59.0983 15.6766 59.1382 15.7775 59.1577 15.8931C59.1789 16.007 59.1821 16.1307 59.1675 16.2642L58.877 18H58.4326L58.7256 16.2568C58.7386 16.1445 58.7329 16.0461 58.7085 15.9614C58.6857 15.8768 58.6401 15.8109 58.5718 15.7637C58.5034 15.7148 58.409 15.6896 58.2886 15.688C58.1925 15.6847 58.1047 15.6994 58.0249 15.7319C57.9451 15.7645 57.876 15.8109 57.8174 15.8711C57.7588 15.9297 57.71 15.998 57.6709 16.0762C57.6335 16.1543 57.6074 16.2389 57.5928 16.3301ZM59.6509 16.7231L59.6582 16.667C59.6777 16.4896 59.7217 16.3187 59.79 16.1543C59.86 15.9899 59.952 15.8434 60.0659 15.7148C60.1799 15.5863 60.3149 15.4854 60.4712 15.4121C60.6274 15.3389 60.8016 15.3047 60.9937 15.3096C61.1792 15.3128 61.3379 15.3527 61.4697 15.4292C61.6032 15.5057 61.7106 15.6074 61.792 15.7344C61.875 15.8597 61.9328 16.0013 61.9653 16.1592C61.9979 16.3171 62.006 16.4798 61.9897 16.6475L61.9849 16.7036C61.9637 16.881 61.9181 17.0511 61.8481 17.2139C61.7782 17.3766 61.6854 17.5215 61.5698 17.6484C61.4559 17.7754 61.3208 17.8755 61.1646 17.9487C61.0083 18.0203 60.835 18.0537 60.6445 18.0488C60.4606 18.0456 60.3019 18.0065 60.1685 17.9316C60.0366 17.8551 59.93 17.7542 59.8486 17.6289C59.7673 17.5036 59.7103 17.3628 59.6777 17.2065C59.6452 17.0503 59.6362 16.8892 59.6509 16.7231ZM60.0977 16.667L60.0928 16.7256C60.0814 16.8281 60.0806 16.9347 60.0903 17.0454C60.1017 17.1561 60.1278 17.2586 60.1685 17.353C60.2108 17.4474 60.2718 17.5247 60.3516 17.585C60.4313 17.6452 60.5347 17.6769 60.6616 17.6802C60.7967 17.6834 60.9155 17.6574 61.0181 17.6021C61.1206 17.5451 61.2077 17.4686 61.2793 17.3726C61.3525 17.2765 61.4103 17.1699 61.4526 17.0527C61.4966 16.9355 61.5259 16.8192 61.5405 16.7036L61.5454 16.6475C61.5568 16.5449 61.5568 16.4383 61.5454 16.3276C61.5356 16.2153 61.5096 16.1112 61.4673 16.0151C61.4266 15.9175 61.3664 15.8385 61.2866 15.7783C61.2069 15.7165 61.1035 15.6839 60.9766 15.6807C60.8415 15.6758 60.7218 15.7026 60.6177 15.7612C60.5151 15.8182 60.4281 15.8955 60.3564 15.9932C60.2848 16.0908 60.2271 16.1991 60.1831 16.3179C60.1408 16.4351 60.1123 16.5514 60.0977 16.667ZM63.1299 15.793L62.7466 18H62.3047L62.7637 15.3584H63.1934L63.1299 15.793ZM63.9868 15.3364L63.9453 15.7612C63.9111 15.7547 63.8761 15.749 63.8403 15.7441C63.8062 15.7393 63.772 15.7368 63.7378 15.7368C63.632 15.7352 63.5368 15.7515 63.4521 15.7856C63.3691 15.8182 63.2951 15.8646 63.23 15.9248C63.1665 15.985 63.112 16.0558 63.0664 16.1372C63.0225 16.2186 62.9875 16.3065 62.9614 16.4009L62.8223 16.4741C62.8402 16.3423 62.8695 16.2072 62.9102 16.0688C62.9525 15.9305 63.0103 15.8027 63.0835 15.6855C63.1584 15.5684 63.252 15.474 63.3643 15.4023C63.4782 15.3307 63.6149 15.2974 63.7744 15.3022C63.8102 15.3022 63.8452 15.3055 63.8794 15.312C63.9152 15.3185 63.951 15.3267 63.9868 15.3364ZM65.0195 18.0488C64.8389 18.0456 64.6818 18.0098 64.5483 17.9414C64.4165 17.8714 64.3083 17.7778 64.2236 17.6606C64.1406 17.5418 64.0812 17.4067 64.0454 17.2554C64.0096 17.104 63.999 16.9453 64.0137 16.7793L64.0234 16.6743C64.0397 16.505 64.0812 16.339 64.1479 16.1763C64.2147 16.0119 64.3034 15.8638 64.4141 15.7319C64.5264 15.6001 64.6582 15.4959 64.8096 15.4194C64.9626 15.3413 65.1318 15.3047 65.3174 15.3096C65.5013 15.3128 65.6543 15.3519 65.7764 15.4268C65.8984 15.5016 65.9937 15.6009 66.062 15.7246C66.132 15.8467 66.1776 15.9842 66.1987 16.1372C66.2199 16.2886 66.2215 16.444 66.2036 16.6035L66.1768 16.8062H64.2603L64.3188 16.4375L65.7812 16.4399L65.7886 16.4009C65.8049 16.2837 65.7983 16.1706 65.769 16.0615C65.7397 15.9525 65.686 15.863 65.6079 15.793C65.5314 15.7214 65.4281 15.6839 65.2979 15.6807C65.1628 15.6758 65.0456 15.7035 64.9463 15.7637C64.847 15.8223 64.764 15.902 64.6973 16.0029C64.6305 16.1022 64.5776 16.2113 64.5386 16.3301C64.5011 16.4473 64.4751 16.562 64.4604 16.6743L64.4507 16.7769C64.4409 16.881 64.4442 16.986 64.4604 17.0918C64.4767 17.1976 64.5076 17.2944 64.5532 17.3823C64.6004 17.4686 64.6655 17.5394 64.7485 17.5947C64.8315 17.6484 64.9341 17.6769 65.0562 17.6802C65.2043 17.6834 65.3369 17.6517 65.4541 17.585C65.5729 17.5166 65.6812 17.4303 65.7788 17.3262L66.0303 17.541C65.9538 17.6533 65.8626 17.7477 65.7568 17.8242C65.651 17.9007 65.5355 17.9577 65.4102 17.9951C65.2848 18.0326 65.1546 18.0505 65.0195 18.0488Z" fill="white"/>
<path d="M10.5 5.75C10.5 5.517 10.6915 5.33315 10.9183 5.28004C11.592 5.12233 12.1223 4.59202 12.28 3.91831C12.3332 3.69145 12.517 3.5 12.75 3.5V3.5C12.983 3.5 13.1668 3.69145 13.22 3.91831C13.3777 4.59202 13.908 5.12233 14.5817 5.28004C14.8085 5.33315 15 5.517 15 5.75V5.75C15 5.983 14.8085 6.16685 14.5817 6.21996C13.908 6.37767 13.3777 6.90798 13.22 7.58169C13.1668 7.80855 12.983 8 12.75 8V8C12.517 8 12.3332 7.80855 12.28 7.58169C12.1223 6.90798 11.592 6.37767 10.9183 6.21996C10.6915 6.16685 10.5 5.983 10.5 5.75V5.75ZM0.75 11C0.75 10.5858 1.08831 10.2566 1.49686 10.1883C3.38377 9.87312 4.87312 8.38377 5.18831 6.49686C5.25655 6.08831 5.58579 5.75 6 5.75V5.75C6.41421 5.75 6.74345 6.08831 6.81169 6.49686C7.12688 8.38377 8.61623 9.87312 10.5031 10.1883C10.9117 10.2566 11.25 10.5858 11.25 11V11C11.25 11.4142 10.9117 11.7434 10.5031 11.8117C8.61623 12.1269 7.12688 13.6162 6.81169 15.5031C6.74345 15.9117 6.41421 16.25 6 16.25V16.25C5.58579 16.25 5.25655 15.9117 5.18831 15.5031C4.87312 13.6162 3.38377 12.1269 1.49686 11.8117C1.08831 11.7434 0.75 11.4142 0.75 11V11ZM13.5 12.5C13.1893 12.5 12.9442 12.7553 12.8734 13.0577C12.6631 13.956 11.956 14.6631 11.0577 14.8734C10.7553 14.9442 10.5 15.1893 10.5 15.5V15.5C10.5 15.8107 10.7553 16.0558 11.0577 16.1266C11.956 16.3369 12.6631 17.044 12.8734 17.9423C12.9442 18.2447 13.1893 18.5 13.5 18.5V18.5C13.8107 18.5 14.0558 18.2447 14.1266 17.9423C14.3369 17.044 15.044 16.3369 15.9423 16.1266C16.2447 16.0558 16.5 15.8107 16.5 15.5V15.5C16.5 15.1893 16.2447 14.9442 15.9423 14.8734C15.044 14.6631 14.3369 13.956 14.1266 13.0577C14.0558 12.7553 13.8107 12.5 13.5 12.5V12.5Z" fill="#875BCD"/>
</svg>
